{
 "cells": [
  {
   "cell_type": "markdown",
   "id": "c48130e0",
   "metadata": {},
   "source": [
    "# Generate Test Data\n",
    "Use ffmpeg to extract segments from the src videos so I can have smaller test segments"
   ]
  },
  {
   "cell_type": "code",
   "execution_count": 2,
   "id": "84e5088b",
   "metadata": {},
   "outputs": [],
   "source": [
    "import subprocess"
   ]
  },
  {
   "cell_type": "markdown",
   "id": "eb3b101a",
   "metadata": {},
   "source": [
    "## 1. GRAPPLING HOOK!"
   ]
  },
  {
   "cell_type": "code",
   "execution_count": 15,
   "id": "85f080bf",
   "metadata": {},
   "outputs": [
    {
     "data": {
      "text/plain": [
       "CompletedProcess(args='echo y | ../tools/ffmpeg  -ss 00:19:40.000 -i Assets/src.mp4 -t 5 -map 0 -c copy Assets/1.mp4', returncode=0, stdout=b'', stderr=b\"ffmpeg version 6.1-static https://johnvansickle.com/ffmpeg/  Copyright (c) 2000-2023 the FFmpeg developers\\n  built with gcc 8 (Debian 8.3.0-6)\\n  configuration: --enable-gpl --enable-version3 --enable-static --disable-debug --disable-ffplay --disable-indev=sndio --disable-outdev=sndio --cc=gcc --enable-fontconfig --enable-frei0r --enable-gnutls --enable-gmp --enable-libgme --enable-gray --enable-libfribidi --enable-libass --enable-libfreetype --enable-libmp3lame --enable-libopencore-amrnb --enable-libopencore-amrwb --enable-libopenjpeg --enable-librubberband --enable-libsoxr --enable-libspeex --enable-libsrt --enable-libvorbis --enable-libopus --enable-libtheora --enable-libvidstab --enable-libvo-amrwbenc --enable-libvpx --enable-libwebp --enable-libx264 --enable-libx265 --enable-libxml2 --enable-libxvid --enable-libzimg\\n  libavutil      58. 29.100 / 58. 29.100\\n  libavcodec     60. 31.102 / 60. 31.102\\n  libavformat    60. 16.100 / 60. 16.100\\n  libavdevice    60.  3.100 / 60.  3.100\\n  libavfilter     9. 12.100 /  9. 12.100\\n  libswscale      7.  5.100 /  7.  5.100\\n  libswresample   4. 12.100 /  4. 12.100\\n  libpostproc    57.  3.100 / 57.  3.100\\nInput #0, mov,mp4,m4a,3gp,3g2,mj2, from 'Assets/src.mp4':\\n  Metadata:\\n    major_brand     : isom\\n    minor_version   : 512\\n    compatible_brands: isomiso2avc1mp41\\n    encoder         : Lavf61.7.100\\n  Duration: 00:21:02.82, start: 0.000000, bitrate: 486 kb/s\\n  Stream #0:0[0x1](und): Video: h264 (Main) (avc1 / 0x31637661), yuv420p(tv, bt709, progressive), 854x480 [SAR 1:1 DAR 427:240], 352 kb/s, 23.98 fps, 23.98 tbr, 24k tbn (default)\\n    Metadata:\\n      handler_name    : ISO Media file produced by Google Inc.\\n      vendor_id       : [0][0][0][0]\\n  Stream #0:1[0x2](eng): Audio: aac (LC) (mp4a / 0x6134706D), 44100 Hz, stereo, fltp, 127 kb/s (default)\\n    Metadata:\\n      handler_name    : ISO Media file produced by Google Inc.\\n      vendor_id       : [0][0][0][0]\\nFile 'Assets/1.mp4' already exists. Overwrite? [y/N] Output #0, mp4, to 'Assets/1.mp4':\\n  Metadata:\\n    major_brand     : isom\\n    minor_version   : 512\\n    compatible_brands: isomiso2avc1mp41\\n    encoder         : Lavf60.16.100\\n  Stream #0:0(und): Video: h264 (Main) (avc1 / 0x31637661), yuv420p(tv, bt709, progressive), 854x480 [SAR 1:1 DAR 427:240], q=2-31, 352 kb/s, 23.98 fps, 23.98 tbr, 24k tbn (default)\\n    Metadata:\\n      handler_name    : ISO Media file produced by Google Inc.\\n      vendor_id       : [0][0][0][0]\\n  Stream #0:1(eng): Audio: aac (LC) (mp4a / 0x6134706D), 44100 Hz, stereo, fltp, 127 kb/s (default)\\n    Metadata:\\n      handler_name    : ISO Media file produced by Google Inc.\\n      vendor_id       : [0][0][0][0]\\nStream mapping:\\n  Stream #0:0 -> #0:0 (copy)\\n  Stream #0:1 -> #0:1 (copy)\\nPress [q] to stop, [?] for help\\nsize=       0kB time=-00:00:00.28 bitrate=  -0.0kbits/s speed=N/A    \\r[out#0/mp4 @ 0xdff5b40] video:316kB audio:83kB subtitle:0kB other streams:0kB global headers:0kB muxing overhead: 1.345360%\\nsize=     404kB time=00:00:04.98 bitrate= 664.8kbits/s speed= 627x    \\n\")"
      ]
     },
     "execution_count": 15,
     "metadata": {},
     "output_type": "execute_result"
    }
   ],
   "source": [
    "# Get the video clip\n",
    "subprocess.run(\n",
    "    \"echo y | ../tools/ffmpeg  -ss 00:19:40.000 -i Assets/src.mp4 -t 5 -map 0 -c copy Assets/1.mp4\",\n",
    "    shell=True,\n",
    "    capture_output=True\n",
    ")"
   ]
  },
  {
   "cell_type": "markdown",
   "id": "42ba3b91",
   "metadata": {},
   "source": [
    "## 2. There's a goat on my bed"
   ]
  },
  {
   "cell_type": "code",
   "execution_count": 16,
   "id": "bc72407f",
   "metadata": {},
   "outputs": [
    {
     "data": {
      "text/plain": [
       "CompletedProcess(args='echo y | ../tools/ffmpeg  -ss 00:01:45.000 -i Assets/src.mp4 -t 7 -map 0 -c copy Assets/2.mp4', returncode=0, stdout=b'', stderr=b\"ffmpeg version 6.1-static https://johnvansickle.com/ffmpeg/  Copyright (c) 2000-2023 the FFmpeg developers\\n  built with gcc 8 (Debian 8.3.0-6)\\n  configuration: --enable-gpl --enable-version3 --enable-static --disable-debug --disable-ffplay --disable-indev=sndio --disable-outdev=sndio --cc=gcc --enable-fontconfig --enable-frei0r --enable-gnutls --enable-gmp --enable-libgme --enable-gray --enable-libfribidi --enable-libass --enable-libfreetype --enable-libmp3lame --enable-libopencore-amrnb --enable-libopencore-amrwb --enable-libopenjpeg --enable-librubberband --enable-libsoxr --enable-libspeex --enable-libsrt --enable-libvorbis --enable-libopus --enable-libtheora --enable-libvidstab --enable-libvo-amrwbenc --enable-libvpx --enable-libwebp --enable-libx264 --enable-libx265 --enable-libxml2 --enable-libxvid --enable-libzimg\\n  libavutil      58. 29.100 / 58. 29.100\\n  libavcodec     60. 31.102 / 60. 31.102\\n  libavformat    60. 16.100 / 60. 16.100\\n  libavdevice    60.  3.100 / 60.  3.100\\n  libavfilter     9. 12.100 /  9. 12.100\\n  libswscale      7.  5.100 /  7.  5.100\\n  libswresample   4. 12.100 /  4. 12.100\\n  libpostproc    57.  3.100 / 57.  3.100\\nInput #0, mov,mp4,m4a,3gp,3g2,mj2, from 'Assets/src.mp4':\\n  Metadata:\\n    major_brand     : isom\\n    minor_version   : 512\\n    compatible_brands: isomiso2avc1mp41\\n    encoder         : Lavf61.7.100\\n  Duration: 00:21:02.82, start: 0.000000, bitrate: 486 kb/s\\n  Stream #0:0[0x1](und): Video: h264 (Main) (avc1 / 0x31637661), yuv420p(tv, bt709, progressive), 854x480 [SAR 1:1 DAR 427:240], 352 kb/s, 23.98 fps, 23.98 tbr, 24k tbn (default)\\n    Metadata:\\n      handler_name    : ISO Media file produced by Google Inc.\\n      vendor_id       : [0][0][0][0]\\n  Stream #0:1[0x2](eng): Audio: aac (LC) (mp4a / 0x6134706D), 44100 Hz, stereo, fltp, 127 kb/s (default)\\n    Metadata:\\n      handler_name    : ISO Media file produced by Google Inc.\\n      vendor_id       : [0][0][0][0]\\nFile 'Assets/2.mp4' already exists. Overwrite? [y/N] Output #0, mp4, to 'Assets/2.mp4':\\n  Metadata:\\n    major_brand     : isom\\n    minor_version   : 512\\n    compatible_brands: isomiso2avc1mp41\\n    encoder         : Lavf60.16.100\\n  Stream #0:0(und): Video: h264 (Main) (avc1 / 0x31637661), yuv420p(tv, bt709, progressive), 854x480 [SAR 1:1 DAR 427:240], q=2-31, 352 kb/s, 23.98 fps, 23.98 tbr, 24k tbn (default)\\n    Metadata:\\n      handler_name    : ISO Media file produced by Google Inc.\\n      vendor_id       : [0][0][0][0]\\n  Stream #0:1(eng): Audio: aac (LC) (mp4a / 0x6134706D), 44100 Hz, stereo, fltp, 127 kb/s (default)\\n    Metadata:\\n      handler_name    : ISO Media file produced by Google Inc.\\n      vendor_id       : [0][0][0][0]\\nStream mapping:\\n  Stream #0:0 -> #0:0 (copy)\\n  Stream #0:1 -> #0:1 (copy)\\nPress [q] to stop, [?] for help\\nsize=       0kB time=-00:00:01.48 bitrate=  -0.0kbits/s speed=N/A    \\r[out#0/mp4 @ 0xd400b40] video:413kB audio:133kB subtitle:0kB other streams:0kB global headers:0kB muxing overhead: 1.416319%\\nsize=     554kB time=00:00:06.98 bitrate= 648.9kbits/s speed=1.12e+03x    \\n\")"
      ]
     },
     "execution_count": 16,
     "metadata": {},
     "output_type": "execute_result"
    }
   ],
   "source": [
    "# Get the video clip\n",
    "subprocess.run(\n",
    "    \"echo y | ../tools/ffmpeg  -ss 00:01:45.000 -i Assets/src.mp4 -t 7 -map 0 -c copy Assets/2.mp4\",\n",
    "    shell=True,\n",
    "    capture_output=True\n",
    ")"
   ]
  },
  {
   "cell_type": "markdown",
   "id": "30702682",
   "metadata": {},
   "source": [
    "## 3. There's something I should tell you..."
   ]
  },
  {
   "cell_type": "code",
   "execution_count": 17,
   "id": "4d48a02b",
   "metadata": {},
   "outputs": [
    {
     "data": {
      "text/plain": [
       "CompletedProcess(args='echo y | ../tools/ffmpeg  -ss 00:12:26.000 -i Assets/src.mp4 -t 60 -map 0 -c copy Assets/3.mp4', returncode=0, stdout=b'', stderr=b\"ffmpeg version 6.1-static https://johnvansickle.com/ffmpeg/  Copyright (c) 2000-2023 the FFmpeg developers\\n  built with gcc 8 (Debian 8.3.0-6)\\n  configuration: --enable-gpl --enable-version3 --enable-static --disable-debug --disable-ffplay --disable-indev=sndio --disable-outdev=sndio --cc=gcc --enable-fontconfig --enable-frei0r --enable-gnutls --enable-gmp --enable-libgme --enable-gray --enable-libfribidi --enable-libass --enable-libfreetype --enable-libmp3lame --enable-libopencore-amrnb --enable-libopencore-amrwb --enable-libopenjpeg --enable-librubberband --enable-libsoxr --enable-libspeex --enable-libsrt --enable-libvorbis --enable-libopus --enable-libtheora --enable-libvidstab --enable-libvo-amrwbenc --enable-libvpx --enable-libwebp --enable-libx264 --enable-libx265 --enable-libxml2 --enable-libxvid --enable-libzimg\\n  libavutil      58. 29.100 / 58. 29.100\\n  libavcodec     60. 31.102 / 60. 31.102\\n  libavformat    60. 16.100 / 60. 16.100\\n  libavdevice    60.  3.100 / 60.  3.100\\n  libavfilter     9. 12.100 /  9. 12.100\\n  libswscale      7.  5.100 /  7.  5.100\\n  libswresample   4. 12.100 /  4. 12.100\\n  libpostproc    57.  3.100 / 57.  3.100\\nInput #0, mov,mp4,m4a,3gp,3g2,mj2, from 'Assets/src.mp4':\\n  Metadata:\\n    major_brand     : isom\\n    minor_version   : 512\\n    compatible_brands: isomiso2avc1mp41\\n    encoder         : Lavf61.7.100\\n  Duration: 00:21:02.82, start: 0.000000, bitrate: 486 kb/s\\n  Stream #0:0[0x1](und): Video: h264 (Main) (avc1 / 0x31637661), yuv420p(tv, bt709, progressive), 854x480 [SAR 1:1 DAR 427:240], 352 kb/s, 23.98 fps, 23.98 tbr, 24k tbn (default)\\n    Metadata:\\n      handler_name    : ISO Media file produced by Google Inc.\\n      vendor_id       : [0][0][0][0]\\n  Stream #0:1[0x2](eng): Audio: aac (LC) (mp4a / 0x6134706D), 44100 Hz, stereo, fltp, 127 kb/s (default)\\n    Metadata:\\n      handler_name    : ISO Media file produced by Google Inc.\\n      vendor_id       : [0][0][0][0]\\nFile 'Assets/3.mp4' already exists. Overwrite? [y/N] Output #0, mp4, to 'Assets/3.mp4':\\n  Metadata:\\n    major_brand     : isom\\n    minor_version   : 512\\n    compatible_brands: isomiso2avc1mp41\\n    encoder         : Lavf60.16.100\\n  Stream #0:0(und): Video: h264 (Main) (avc1 / 0x31637661), yuv420p(tv, bt709, progressive), 854x480 [SAR 1:1 DAR 427:240], q=2-31, 352 kb/s, 23.98 fps, 23.98 tbr, 24k tbn (default)\\n    Metadata:\\n      handler_name    : ISO Media file produced by Google Inc.\\n      vendor_id       : [0][0][0][0]\\n  Stream #0:1(eng): Audio: aac (LC) (mp4a / 0x6134706D), 44100 Hz, stereo, fltp, 127 kb/s (default)\\n    Metadata:\\n      handler_name    : ISO Media file produced by Google Inc.\\n      vendor_id       : [0][0][0][0]\\nStream mapping:\\n  Stream #0:0 -> #0:0 (copy)\\n  Stream #0:1 -> #0:1 (copy)\\nPress [q] to stop, [?] for help\\nsize=       0kB time=-00:00:00.75 bitrate=  -0.0kbits/s speed=N/A    \\r[out#0/mp4 @ 0xc9a0b40] video:1687kB audio:949kB subtitle:0kB other streams:0kB global headers:0kB muxing overhead: 1.735964%\\nsize=    2682kB time=00:00:59.98 bitrate= 366.3kbits/s speed=1.15e+03x    \\n\")"
      ]
     },
     "execution_count": 17,
     "metadata": {},
     "output_type": "execute_result"
    }
   ],
   "source": [
    "# Get the video clip\n",
    "subprocess.run(\n",
    "    \"echo y | ../tools/ffmpeg  -ss 00:12:26.000 -i Assets/src.mp4 -t 60 -map 0 -c copy Assets/3.mp4\",\n",
    "    shell=True,\n",
    "    capture_output=True\n",
    ")"
   ]
  },
  {
   "cell_type": "markdown",
   "id": "6e79cda3",
   "metadata": {},
   "source": [
    "# Get duration"
   ]
  },
  {
   "cell_type": "code",
   "execution_count": null,
   "id": "c9291de5",
   "metadata": {},
   "outputs": [
    {
     "data": {
      "text/plain": [
       "1262.817234"
      ]
     },
     "execution_count": 4,
     "metadata": {},
     "output_type": "execute_result"
    }
   ],
   "source": [
    "import json\n",
    "import subprocess\n",
    "result = subprocess.run(\n",
    "    \"../tools/ffprobe  -v error -show_entries format=duration -of default=noprint_wrappers=1:nokey=1 Assets/src.mp4\",\n",
    "    shell=True,\n",
    "    capture_output=True\n",
    ")\n",
    "runtime_secs = json.loads(result.stdout)\n",
    "runtime_secs\n"
   ]
  },
  {
   "cell_type": "code",
   "execution_count": 5,
   "id": "eb817330",
   "metadata": {},
   "outputs": [
    {
     "data": {
      "text/plain": [
       "1262"
      ]
     },
     "execution_count": 5,
     "metadata": {},
     "output_type": "execute_result"
    }
   ],
   "source": [
    "# According to VLC it's 21:02 runtime\n",
    "# Which is obviously\n",
    "21*60+2"
   ]
  },
  {
   "cell_type": "markdown",
   "id": "dac04ade",
   "metadata": {},
   "source": [
    "# Extract Audio"
   ]
  },
  {
   "cell_type": "code",
   "execution_count": 19,
   "id": "23330081",
   "metadata": {},
   "outputs": [
    {
     "name": "stdout",
     "output_type": "stream",
     "text": [
      "3.mp4\n",
      "2.mp4\n",
      "1.mp4\n"
     ]
    }
   ],
   "source": [
    "# Extract Audio\n",
    "import pathlib\n",
    "for file in pathlib.Path(\"Assets\").glob(\"*.mp4\"):\n",
    "    if \"src.mp4\" == file.name:\n",
    "        continue\n",
    "    print( file.name )\n",
    "    subprocess.run(\n",
    "        f\"echo y | ../tools/ffmpeg  -i Assets/{file.name} Assets/{file.stem}.wav\",\n",
    "        shell=True,\n",
    "        capture_output=True\n",
    "    )\n"
   ]
  },
  {
   "cell_type": "markdown",
   "id": "a67fa62a",
   "metadata": {},
   "source": [
    "# Generate Subtitles"
   ]
  },
  {
   "cell_type": "code",
   "execution_count": 1,
   "id": "aba5e9dd",
   "metadata": {},
   "outputs": [],
   "source": [
    "def format_timestamp(sec : float):\n",
    "    hh = int(sec // 3600)\n",
    "    mm = int((sec % 3600) // 60)\n",
    "    ss = int(sec % 60)\n",
    "    mil = int((sec - int(sec)) * 1000)\n",
    "    return f\"{hh:02}:{mm:02}:{ss:02}.{mil:03}\"\n"
   ]
  },
  {
   "cell_type": "code",
   "execution_count": 2,
   "id": "fd4ea889",
   "metadata": {},
   "outputs": [],
   "source": [
    "import pathlib\n",
    "from faster_whisper import WhisperModel\n",
    "model = WhisperModel(\n",
    "    'small.en', device=\"cpu\", compute_type=\"int8\", download_root=\"tools\"\n",
    ")\n",
    "for audio_path in pathlib.Path(\"Assets\").glob(\"*.wav\"):\n",
    "    srt_file = audio_path.with_suffix(\".srt\")\n",
    "    segments, _ = model.transcribe(audio_path, beam_size=5)\n",
    "\n",
    "    with srt_file.open(mode=\"w\") as f:\n",
    "        for i, segment in enumerate(segments):\n",
    "            # Skip lines that are descriptions (e.g. '[music]', '[applause]')\n",
    "            if segment.text.endswith(\"]\"):\n",
    "                continue\n",
    "            f.write(\n",
    "                f\"{format_timestamp(segment.start)} --> {format_timestamp(segment.end)}\\n{segment.text.strip()}\\n\\n\"\n",
    "            )\n",
    "        pass"
   ]
  },
  {
   "cell_type": "markdown",
   "id": "b6fba24e",
   "metadata": {},
   "source": [
    "# Create videos with subtitles"
   ]
  },
  {
   "cell_type": "code",
   "execution_count": null,
   "id": "7034ac71",
   "metadata": {},
   "outputs": [
    {
     "name": "stderr",
     "output_type": "stream",
     "text": [
      "ffmpeg version 7.1.1-1ubuntu4.2 Copyright (c) 2000-2025 the FFmpeg developers\n",
      "  built with gcc 15 (Ubuntu 15.2.0-4ubuntu4)\n",
      "  configuration: --prefix=/usr --extra-version=1ubuntu4.2 --toolchain=hardened --libdir=/usr/lib/x86_64-linux-gnu --incdir=/usr/include/x86_64-linux-gnu --arch=amd64 --enable-gpl --disable-stripping --disable-libmfx --disable-omx --enable-gnutls --enable-libaom --enable-libass --enable-libbs2b --enable-libcdio --enable-libcodec2 --enable-libdav1d --enable-libflite --enable-libfontconfig --enable-libfreetype --enable-libfribidi --enable-libglslang --enable-libgme --enable-libgsm --enable-libharfbuzz --enable-libmp3lame --enable-libmysofa --enable-libopenjpeg --enable-libopenmpt --enable-libopus --enable-librubberband --enable-libshine --enable-libsnappy --enable-libsoxr --enable-libspeex --enable-libtheora --enable-libtwolame --enable-libvidstab --enable-libvorbis --enable-libvpx --enable-libwebp --enable-libx265 --enable-libxml2 --enable-libxvid --enable-libzimg --enable-openal --enable-opencl --enable-opengl --disable-sndio --enable-libvpl --enable-libdc1394 --enable-libdrm --enable-libiec61883 --enable-chromaprint --enable-frei0r --enable-ladspa --enable-libbluray --enable-libcaca --enable-libdvdnav --enable-libdvdread --enable-libjack --enable-libpulse --enable-librabbitmq --enable-librist --enable-libsrt --enable-libssh --enable-libsvtav1 --enable-libx264 --enable-libzmq --enable-libzvbi --enable-lv2 --enable-sdl2 --enable-libplacebo --enable-librav1e --enable-pocketsphinx --enable-librsvg --enable-libjxl --enable-shared\n",
      "  libavutil      59. 39.100 / 59. 39.100\n",
      "  libavcodec     61. 19.101 / 61. 19.101\n",
      "  libavformat    61.  7.100 / 61.  7.100\n",
      "  libavdevice    61.  3.100 / 61.  3.100\n",
      "  libavfilter    10.  4.100 / 10.  4.100\n",
      "  libswscale      8.  3.100 /  8.  3.100\n",
      "  libswresample   5.  3.100 /  5.  3.100\n",
      "  libpostproc    58.  3.100 / 58.  3.100\n",
      "Input #0, mov,mp4,m4a,3gp,3g2,mj2, from 'Assets/3.mp4':\n",
      "  Metadata:\n",
      "    major_brand     : isom\n",
      "    minor_version   : 512\n",
      "    compatible_brands: isomiso2avc1mp41\n",
      "    encoder         : Lavf60.16.100\n",
      "  Duration: 00:01:00.10, start: 0.000000, bitrate: 365 kb/s\n",
      "  Stream #0:0[0x1](und): Video: h264 (Main) (avc1 / 0x31637661), yuv420p(tv, bt709, progressive), 854x480 [SAR 1:1 DAR 427:240], 227 kb/s, 23.98 fps, 23.98 tbr, 24k tbn (default)\n",
      "      Metadata:\n",
      "        handler_name    : ISO Media file produced by Google Inc.\n",
      "        vendor_id       : [0][0][0][0]\n",
      "  Stream #0:1[0x2](eng): Audio: aac (LC) (mp4a / 0x6134706D), 44100 Hz, stereo, fltp, 127 kb/s (default)\n",
      "      Metadata:\n",
      "        handler_name    : ISO Media file produced by Google Inc.\n",
      "        vendor_id       : [0][0][0][0]\n",
      "Input #1, srt, from 'Assets/3.srt':\n",
      "  Duration: N/A, bitrate: N/A\n",
      "  Stream #1:0: Subtitle: subrip (srt)\n",
      "[sost#0:2 @ 0x61d37cb99c40] Multiple -codec/-c/-acodec/-vcodec/-scodec/-dcodec options specified for stream 2, only the last option '-codec:s mov_text' will be used.\n",
      "Stream mapping:\n",
      "  Stream #0:0 -> #0:0 (copy)\n",
      "  Stream #0:1 -> #0:1 (copy)\n",
      "  Stream #1:0 -> #0:2 (subrip (srt) -> mov_text (native))\n",
      "Press [q] to stop, [?] for help\n",
      "Output #0, mp4, to '3_with_subtitles.mp4':\n",
      "  Metadata:\n",
      "    major_brand     : isom\n",
      "    minor_version   : 512\n",
      "    compatible_brands: isomiso2avc1mp41\n",
      "    encoder         : Lavf61.7.100\n",
      "  Stream #0:0(und): Video: h264 (Main) (avc1 / 0x31637661), yuv420p(tv, bt709, progressive), 854x480 [SAR 1:1 DAR 427:240], q=2-31, 227 kb/s, 23.98 fps, 23.98 tbr, 24k tbn (default)\n",
      "      Metadata:\n",
      "        handler_name    : ISO Media file produced by Google Inc.\n",
      "        vendor_id       : [0][0][0][0]\n",
      "  Stream #0:1(eng): Audio: aac (LC) (mp4a / 0x6134706D), 44100 Hz, stereo, fltp, 127 kb/s (default)\n",
      "      Metadata:\n",
      "        handler_name    : ISO Media file produced by Google Inc.\n",
      "        vendor_id       : [0][0][0][0]\n",
      "  Stream #0:2: Subtitle: mov_text (tx3g / 0x67337874)\n",
      "      Metadata:\n",
      "        encoder         : Lavc61.19.101 mov_text\n",
      "[out#0/mp4 @ 0x61d37cc46980] video:1687KiB audio:949KiB subtitle:1KiB other streams:0KiB global headers:0KiB muxing overhead: 1.763440%\n",
      "frame= 1457 fps=0.0 q=-1.0 Lsize=    2684KiB time=00:00:58.00 bitrate= 379.1kbits/s speed= 910x    \n",
      "ffmpeg version 7.1.1-1ubuntu4.2 Copyright (c) 2000-2025 the FFmpeg developers\n",
      "  built with gcc 15 (Ubuntu 15.2.0-4ubuntu4)\n",
      "  configuration: --prefix=/usr --extra-version=1ubuntu4.2 --toolchain=hardened --libdir=/usr/lib/x86_64-linux-gnu --incdir=/usr/include/x86_64-linux-gnu --arch=amd64 --enable-gpl --disable-stripping --disable-libmfx --disable-omx --enable-gnutls --enable-libaom --enable-libass --enable-libbs2b --enable-libcdio --enable-libcodec2 --enable-libdav1d --enable-libflite --enable-libfontconfig --enable-libfreetype --enable-libfribidi --enable-libglslang --enable-libgme --enable-libgsm --enable-libharfbuzz --enable-libmp3lame --enable-libmysofa --enable-libopenjpeg --enable-libopenmpt --enable-libopus --enable-librubberband --enable-libshine --enable-libsnappy --enable-libsoxr --enable-libspeex --enable-libtheora --enable-libtwolame --enable-libvidstab --enable-libvorbis --enable-libvpx --enable-libwebp --enable-libx265 --enable-libxml2 --enable-libxvid --enable-libzimg --enable-openal --enable-opencl --enable-opengl --disable-sndio --enable-libvpl --enable-libdc1394 --enable-libdrm --enable-libiec61883 --enable-chromaprint --enable-frei0r --enable-ladspa --enable-libbluray --enable-libcaca --enable-libdvdnav --enable-libdvdread --enable-libjack --enable-libpulse --enable-librabbitmq --enable-librist --enable-libsrt --enable-libssh --enable-libsvtav1 --enable-libx264 --enable-libzmq --enable-libzvbi --enable-lv2 --enable-sdl2 --enable-libplacebo --enable-librav1e --enable-pocketsphinx --enable-librsvg --enable-libjxl --enable-shared\n",
      "  libavutil      59. 39.100 / 59. 39.100\n",
      "  libavcodec     61. 19.101 / 61. 19.101\n",
      "  libavformat    61.  7.100 / 61.  7.100\n",
      "  libavdevice    61.  3.100 / 61.  3.100\n",
      "  libavfilter    10.  4.100 / 10.  4.100\n",
      "  libswscale      8.  3.100 /  8.  3.100\n",
      "  libswresample   5.  3.100 /  5.  3.100\n",
      "  libpostproc    58.  3.100 / 58.  3.100\n",
      "Input #0, mov,mp4,m4a,3gp,3g2,mj2, from 'Assets/2.mp4':\n",
      "  Metadata:\n",
      "    major_brand     : isom\n",
      "    minor_version   : 512\n",
      "    compatible_brands: isomiso2avc1mp41\n",
      "    encoder         : Lavf60.16.100\n",
      "  Duration: 00:00:07.11, start: 0.000000, bitrate: 637 kb/s\n",
      "  Stream #0:0[0x1](und): Video: h264 (Main) (avc1 / 0x31637661), yuv420p(tv, bt709, progressive), 854x480 [SAR 1:1 DAR 427:240], 397 kb/s, 23.98 fps, 23.98 tbr, 24k tbn (default)\n",
      "      Metadata:\n",
      "        handler_name    : ISO Media file produced by Google Inc.\n",
      "        vendor_id       : [0][0][0][0]\n",
      "  Stream #0:1[0x2](eng): Audio: aac (LC) (mp4a / 0x6134706D), 44100 Hz, stereo, fltp, 128 kb/s (default)\n",
      "      Metadata:\n",
      "        handler_name    : ISO Media file produced by Google Inc.\n",
      "        vendor_id       : [0][0][0][0]\n",
      "Input #1, srt, from 'Assets/2.srt':\n",
      "  Duration: N/A, bitrate: N/A\n",
      "  Stream #1:0: Subtitle: subrip (srt)\n",
      "[sost#0:2 @ 0x5b0d87781b80] Multiple -codec/-c/-acodec/-vcodec/-scodec/-dcodec options specified for stream 2, only the last option '-codec:s mov_text' will be used.\n",
      "Stream mapping:\n",
      "  Stream #0:0 -> #0:0 (copy)\n",
      "  Stream #0:1 -> #0:1 (copy)\n",
      "  Stream #1:0 -> #0:2 (subrip (srt) -> mov_text (native))\n",
      "Press [q] to stop, [?] for help\n",
      "Output #0, mp4, to '2_with_subtitles.mp4':\n",
      "  Metadata:\n",
      "    major_brand     : isom\n",
      "    minor_version   : 512\n",
      "    compatible_brands: isomiso2avc1mp41\n",
      "    encoder         : Lavf61.7.100\n",
      "  Stream #0:0(und): Video: h264 (Main) (avc1 / 0x31637661), yuv420p(tv, bt709, progressive), 854x480 [SAR 1:1 DAR 427:240], q=2-31, 397 kb/s, 23.98 fps, 23.98 tbr, 24k tbn (default)\n",
      "      Metadata:\n",
      "        handler_name    : ISO Media file produced by Google Inc.\n",
      "        vendor_id       : [0][0][0][0]\n",
      "  Stream #0:1(eng): Audio: aac (LC) (mp4a / 0x6134706D), 44100 Hz, stereo, fltp, 128 kb/s (default)\n",
      "      Metadata:\n",
      "        handler_name    : ISO Media file produced by Google Inc.\n",
      "        vendor_id       : [0][0][0][0]\n",
      "  Stream #0:2: Subtitle: mov_text (tx3g / 0x67337874)\n",
      "      Metadata:\n",
      "        encoder         : Lavc61.19.101 mov_text\n",
      "[out#0/mp4 @ 0x5b0d877898c0] video:413KiB audio:125KiB subtitle:0KiB other streams:0KiB global headers:0KiB muxing overhead: 1.496092%\n",
      "frame=  204 fps=0.0 q=-1.0 Lsize=     546KiB time=00:00:07.00 bitrate= 639.4kbits/s speed=2.99e+03x    \n",
      "ffmpeg version 7.1.1-1ubuntu4.2 Copyright (c) 2000-2025 the FFmpeg developers\n",
      "  built with gcc 15 (Ubuntu 15.2.0-4ubuntu4)\n",
      "  configuration: --prefix=/usr --extra-version=1ubuntu4.2 --toolchain=hardened --libdir=/usr/lib/x86_64-linux-gnu --incdir=/usr/include/x86_64-linux-gnu --arch=amd64 --enable-gpl --disable-stripping --disable-libmfx --disable-omx --enable-gnutls --enable-libaom --enable-libass --enable-libbs2b --enable-libcdio --enable-libcodec2 --enable-libdav1d --enable-libflite --enable-libfontconfig --enable-libfreetype --enable-libfribidi --enable-libglslang --enable-libgme --enable-libgsm --enable-libharfbuzz --enable-libmp3lame --enable-libmysofa --enable-libopenjpeg --enable-libopenmpt --enable-libopus --enable-librubberband --enable-libshine --enable-libsnappy --enable-libsoxr --enable-libspeex --enable-libtheora --enable-libtwolame --enable-libvidstab --enable-libvorbis --enable-libvpx --enable-libwebp --enable-libx265 --enable-libxml2 --enable-libxvid --enable-libzimg --enable-openal --enable-opencl --enable-opengl --disable-sndio --enable-libvpl --enable-libdc1394 --enable-libdrm --enable-libiec61883 --enable-chromaprint --enable-frei0r --enable-ladspa --enable-libbluray --enable-libcaca --enable-libdvdnav --enable-libdvdread --enable-libjack --enable-libpulse --enable-librabbitmq --enable-librist --enable-libsrt --enable-libssh --enable-libsvtav1 --enable-libx264 --enable-libzmq --enable-libzvbi --enable-lv2 --enable-sdl2 --enable-libplacebo --enable-librav1e --enable-pocketsphinx --enable-librsvg --enable-libjxl --enable-shared\n",
      "  libavutil      59. 39.100 / 59. 39.100\n",
      "  libavcodec     61. 19.101 / 61. 19.101\n",
      "  libavformat    61.  7.100 / 61.  7.100\n",
      "  libavdevice    61.  3.100 / 61.  3.100\n",
      "  libavfilter    10.  4.100 / 10.  4.100\n",
      "  libswscale      8.  3.100 /  8.  3.100\n",
      "  libswresample   5.  3.100 /  5.  3.100\n",
      "  libpostproc    58.  3.100 / 58.  3.100\n",
      "Input #0, mov,mp4,m4a,3gp,3g2,mj2, from 'Assets/1.mp4':\n",
      "  Metadata:\n",
      "    major_brand     : isom\n",
      "    minor_version   : 512\n",
      "    compatible_brands: isomiso2avc1mp41\n",
      "    encoder         : Lavf60.16.100\n",
      "  Duration: 00:00:05.10, start: 0.000000, bitrate: 649 kb/s\n",
      "  Stream #0:0[0x1](und): Video: h264 (Main) (avc1 / 0x31637661), yuv420p(tv, bt709, progressive), 854x480 [SAR 1:1 DAR 427:240], 488 kb/s, 23.98 fps, 23.98 tbr, 24k tbn (default)\n",
      "      Metadata:\n",
      "        handler_name    : ISO Media file produced by Google Inc.\n",
      "        vendor_id       : [0][0][0][0]\n",
      "  Stream #0:1[0x2](eng): Audio: aac (LC) (mp4a / 0x6134706D), 44100 Hz, stereo, fltp, 128 kb/s (default)\n",
      "      Metadata:\n",
      "        handler_name    : ISO Media file produced by Google Inc.\n",
      "        vendor_id       : [0][0][0][0]\n",
      "Input #1, srt, from 'Assets/1.srt':\n",
      "  Duration: N/A, bitrate: N/A\n",
      "  Stream #1:0: Subtitle: subrip (srt)\n",
      "[sost#0:2 @ 0x55a3a4ca0540] Multiple -codec/-c/-acodec/-vcodec/-scodec/-dcodec options specified for stream 2, only the last option '-codec:s mov_text' will be used.\n",
      "Stream mapping:\n",
      "  Stream #0:0 -> #0:0 (copy)\n",
      "  Stream #0:1 -> #0:1 (copy)\n",
      "  Stream #1:0 -> #0:2 (subrip (srt) -> mov_text (native))\n",
      "Press [q] to stop, [?] for help\n",
      "Output #0, mp4, to '1_with_subtitles.mp4':\n",
      "  Metadata:\n",
      "    major_brand     : isom\n",
      "    minor_version   : 512\n",
      "    compatible_brands: isomiso2avc1mp41\n",
      "    encoder         : Lavf61.7.100\n",
      "  Stream #0:0(und): Video: h264 (Main) (avc1 / 0x31637661), yuv420p(tv, bt709, progressive), 854x480 [SAR 1:1 DAR 427:240], q=2-31, 488 kb/s, 23.98 fps, 23.98 tbr, 24k tbn (default)\n",
      "      Metadata:\n",
      "        handler_name    : ISO Media file produced by Google Inc.\n",
      "        vendor_id       : [0][0][0][0]\n",
      "  Stream #0:1(eng): Audio: aac (LC) (mp4a / 0x6134706D), 44100 Hz, stereo, fltp, 128 kb/s (default)\n",
      "      Metadata:\n",
      "        handler_name    : ISO Media file produced by Google Inc.\n",
      "        vendor_id       : [0][0][0][0]\n",
      "  Stream #0:2: Subtitle: mov_text (tx3g / 0x67337874)\n",
      "      Metadata:\n",
      "        encoder         : Lavc61.19.101 mov_text\n",
      "[out#0/mp4 @ 0x55a3a4c4aac0] video:316KiB audio:83KiB subtitle:0KiB other streams:0KiB global headers:0KiB muxing overhead: 1.473197%\n",
      "frame=  127 fps=0.0 q=-1.0 Lsize=     405KiB time=00:00:05.00 bitrate= 663.6kbits/s speed=3.29e+03x    \n"
     ]
    }
   ],
   "source": [
    "import pathlib\n",
    "import subprocess\n",
    "\n",
    "for video_file in pathlib.Path(\"Assets\").glob(\"*.mp4\"):\n",
    "    srt_file = video_file.with_suffix(\".srt\")\n",
    "    if not srt_file.exists():\n",
    "        continue\n",
    "    output_video = pathlib.Path(f\"{video_file.stem}_with_subtitles.mp4\")\n",
    "    subprocess.run(\n",
    "        f\"echo y | ffmpeg -i {video_file} -f srt -i {srt_file} -c copy -c:s mov_text {output_video}\",\n",
    "        shell=True\n",
    "    )"
   ]
  }
 ],
 "metadata": {
  "kernelspec": {
   "display_name": "subtitles (3.13.7)",
   "language": "python",
   "name": "python3"
  },
  "language_info": {
   "codemirror_mode": {
    "name": "ipython",
    "version": 3
   },
   "file_extension": ".py",
   "mimetype": "text/x-python",
   "name": "python",
   "nbconvert_exporter": "python",
   "pygments_lexer": "ipython3",
   "version": "3.13.7"
  }
 },
 "nbformat": 4,
 "nbformat_minor": 5
}
